{
    "asset" : {
        "generator" : "Khronos glTF Blender I/O v1.6.16",
        "version" : "2.0"
    },
    "scene" : 0,
    "scenes" : [
        {
            "name" : "Scene",
            "nodes" : [
                0
            ]
        }
    ],
    "nodes" : [
        {
            "mesh" : 0,
            "name" : "8_lowpoly_Cylinder.004",
            "rotation" : [
                0.7071068286895752,
                0,
                0,
                0.7071067094802856
            ],
            "scale" : [
                1.5,
                1.5,
                1.5
            ]
        }
    ],
    "materials" : [
        {
            "doubleSided" : true,
            "name" : "Material.011",
            "pbrMetallicRoughness" : {
                "baseColorFactor" : [
                    0.25818300247192383,
                    0.05951099842786789,
                    0.00030399998649954796,
                    1
                ],
                "metallicFactor" : 0,
                "roughnessFactor" : 0.5
            }
        },
        {
            "doubleSided" : true,
            "name" : "Material.012",
            "pbrMetallicRoughness" : {
                "baseColorFactor" : [
                    0.46778398752212524,
                    0.7991030216217041,
                    0.3324519991874695,
                    1
                ],
                "metallicFactor" : 0,
                "roughnessFactor" : 0.5
            }
        },
        {
            "doubleSided" : true,
            "name" : "Material.013",
            "pbrMetallicRoughness" : {
                "baseColorFactor" : [
                    0.4564110040664673,
                    0.7991030216217041,
                    0.17788800597190857,
                    1
                ],
                "metallicFactor" : 0,
                "roughnessFactor" : 0.5
            }
        },
        {
            "doubleSided" : true,
            "name" : "Material.015",
            "pbrMetallicRoughness" : {
                "baseColorFactor" : [
                    0.4564110040664673,
                    0.7991030216217041,
                    0.17788800597190857,
                    1
                ],
                "metallicFactor" : 0,
                "roughnessFactor" : 0.5
            }
        }
    ],
    "meshes" : [
        {
            "name" : "8_lowpoly_Cylinder.004",
            "primitives" : [
                {
                    "attributes" : {
                        "POSITION" : 0,
                        "NORMAL" : 1,
                        "TEXCOORD_0" : 2
                    },
                    "indices" : 3,
                    "material" : 0
                },
                {
                    "attributes" : {
                        "POSITION" : 4,
                        "NORMAL" : 5,
                        "TEXCOORD_0" : 6
                    },
                    "indices" : 7,
                    "material" : 1
                },
                {
                    "attributes" : {
                        "POSITION" : 8,
                        "NORMAL" : 9,
                        "TEXCOORD_0" : 10
                    },
                    "indices" : 11,
                    "material" : 2
                },
                {
                    "attributes" : {
                        "POSITION" : 12,
                        "NORMAL" : 13,
                        "TEXCOORD_0" : 14
                    },
                    "indices" : 15,
                    "material" : 3
                }
            ]
        }
    ],
    "accessors" : [
        {
            "bufferView" : 0,
            "componentType" : 5126,
            "count" : 1041,
            "max" : [
                0.16002699732780457,
                0.15773899853229523,
                -0.04799000173807144
            ],
            "min" : [
                -0.16998699307441711,
                -0.1410219967365265,
                -1.0672130584716797
            ],
            "type" : "VEC3"
        },
        {
            "bufferView" : 1,
            "componentType" : 5126,
            "count" : 1041,
            "type" : "VEC3"
        },
        {
            "bufferView" : 2,
            "componentType" : 5126,
            "count" : 1041,
            "type" : "VEC2"
        },
        {
            "bufferView" : 3,
            "componentType" : 5123,
            "count" : 5379,
            "type" : "SCALAR"
        },
        {
            "bufferView" : 4,
            "componentType" : 5126,
            "count" : 5055,
            "max" : [
                0.6200780272483826,
                0.7003350257873535,
                -0.38583800196647644
            ],
            "min" : [
                -0.7396979928016663,
                -0.6877549886703491,
                -3.2405200004577637
            ],
            "type" : "VEC3"
        },
        {
            "bufferView" : 5,
            "componentType" : 5126,
            "count" : 5055,
            "type" : "VEC3"
        },
        {
            "bufferView" : 6,
            "componentType" : 5126,
            "count" : 5055,
            "type" : "VEC2"
        },
        {
            "bufferView" : 7,
            "componentType" : 5123,
            "count" : 26220,
            "type" : "SCALAR"
        },
        {
            "bufferView" : 8,
            "componentType" : 5126,
            "count" : 629,
            "max" : [
                0.005398999899625778,
                0.6129609942436218,
                -0.778626024723053
            ],
            "min" : [
                -0.684827983379364,
                -0.06005999818444252,
                -1.963860034942627
            ],
            "type" : "VEC3"
        },
        {
            "bufferView" : 9,
            "componentType" : 5126,
            "count" : 629,
            "type" : "VEC3"
        },
        {
            "bufferView" : 10,
            "componentType" : 5126,
            "count" : 629,
            "type" : "VEC2"
        },
        {
            "bufferView" : 11,
            "componentType" : 5123,
            "count" : 3348,
            "type" : "SCALAR"
        },
        {
            "bufferView" : 12,
            "componentType" : 5126,
            "count" : 4181,
            "max" : [
                0.6476230025291443,
                0.7648770213127136,
                -0.3971399962902069
            ],
            "min" : [
                -0.7843589782714844,
                -0.7202190160751343,
                -3.267791986465454
            ],
            "type" : "VEC3"
        },
        {
            "bufferView" : 13,
            "componentType" : 5126,
            "count" : 4181,
            "type" : "VEC3"
        },
        {
            "bufferView" : 14,
            "componentType" : 5126,
            "count" : 4181,
            "type" : "VEC2"
        },
        {
            "bufferView" : 15,
            "componentType" : 5123,
            "count" : 22680,
            "type" : "SCALAR"
        }
    ],
    "bufferViews" : [
        {
            "buffer" : 0,
            "byteLength" : 12492,
            "byteOffset" : 0
        },
        {
            "buffer" : 0,
            "byteLength" : 12492,
            "byteOffset" : 12492
        },
        {
            "buffer" : 0,
            "byteLength" : 8328,
            "byteOffset" : 24984
        },
        {
            "buffer" : 0,
            "byteLength" : 10758,
            "byteOffset" : 33312
        },
        {
            "buffer" : 0,
            "byteLength" : 60660,
            "byteOffset" : 44072
        },
        {
            "buffer" : 0,
            "byteLength" : 60660,
            "byteOffset" : 104732
        },
        {
            "buffer" : 0,
            "byteLength" : 40440,
            "byteOffset" : 165392
        },
        {
            "buffer" : 0,
            "byteLength" : 52440,
            "byteOffset" : 205832
        },
        {
            "buffer" : 0,
            "byteLength" : 7548,
            "byteOffset" : 258272
        },
        {
            "buffer" : 0,
            "byteLength" : 7548,
            "byteOffset" : 265820
        },
        {
            "buffer" : 0,
            "byteLength" : 5032,
            "byteOffset" : 273368
        },
        {
            "buffer" : 0,
            "byteLength" : 6696,
            "byteOffset" : 278400
        },
        {
            "buffer" : 0,
            "byteLength" : 50172,
            "byteOffset" : 285096
        },
        {
            "buffer" : 0,
            "byteLength" : 50172,
            "byteOffset" : 335268
        },
        {
            "buffer" : 0,
            "byteLength" : 33448,
            "byteOffset" : 385440
        },
        {
            "buffer" : 0,
            "byteLength" : 45360,
            "byteOffset" : 418888
        }
    ],
    "buffers" : [
        {
            "byteLength" : 464248,
            "uri" : "data:application/octet-stream;base64,"
        }
    ]
}
