{
    "asset" : {
        "generator" : "Khronos glTF Blender I/O v1.6.16",
        "version" : "2.0"
    },
    "scene" : 0,
    "scenes" : [
        {
            "name" : "Scene",
            "nodes" : [
                0
            ]
        }
    ],
    "nodes" : [
        {
            "mesh" : 0,
            "name" : "Apple_Circle.003",
            "rotation" : [
                0.7071068286895752,
                0,
                0,
                0.7071067094802856
            ]
        }
    ],
    "materials" : [
        {
            "doubleSided" : true,
            "name" : "MaterialApple.003",
            "pbrMetallicRoughness" : {
                "baseColorFactor" : [
                    0.800000011920929,
                    0.0033279999624937773,
                    0.01642500050365925,
                    1
                ],
                "metallicFactor" : 0,
                "roughnessFactor" : 0.4999999701976776
            }
        },
        {
            "doubleSided" : true,
            "name" : "MaterialAppleTree.002",
            "pbrMetallicRoughness" : {
                "baseColorTexture" : {
                    "index" : 0
                },
                "metallicFactor" : 0,
                "roughnessFactor" : 0.5
            }
        }
    ],
    "meshes" : [
        {
            "name" : "Apple_Circle.003",
            "primitives" : [
                {
                    "attributes" : {
                        "POSITION" : 0,
                        "NORMAL" : 1,
                        "TEXCOORD_0" : 2
                    },
                    "indices" : 3,
                    "material" : 0
                },
                {
                    "attributes" : {
                        "POSITION" : 4,
                        "NORMAL" : 5,
                        "TEXCOORD_0" : 6
                    },
                    "indices" : 7,
                    "material" : 1
                }
            ]
        }
    ],
    "textures" : [
        {
            "sampler" : 0,
            "source" : 0
        }
    ],
    "images" : [
        {
            "bufferView" : 8,
            "mimeType" : "image/jpeg",
            "name" : "0"
        }
    ],
    "accessors" : [
        {
            "bufferView" : 0,
            "componentType" : 5126,
            "count" : 5543,
            "max" : [
                1.3833320140838623,
                1.5571010112762451,
                -2.0330300331115723
            ],
            "min" : [
                -1.5822949409484863,
                -1.901955008506775,
                -4.273043155670166
            ],
            "type" : "VEC3"
        },
        {
            "bufferView" : 1,
            "componentType" : 5126,
            "count" : 5543,
            "type" : "VEC3"
        },
        {
            "bufferView" : 2,
            "componentType" : 5126,
            "count" : 5543,
            "type" : "VEC2"
        },
        {
            "bufferView" : 3,
            "componentType" : 5123,
            "count" : 8280,
            "type" : "SCALAR"
        },
        {
            "bufferView" : 4,
            "componentType" : 5126,
            "count" : 1541,
            "max" : [
                1.382944941520691,
                1.4926420450210571,
                0
            ],
            "min" : [
                -1.5817790031433105,
                -1.8387279510498047,
                -4.703732013702393
            ],
            "type" : "VEC3"
        },
        {
            "bufferView" : 5,
            "componentType" : 5126,
            "count" : 1541,
            "type" : "VEC3"
        },
        {
            "bufferView" : 6,
            "componentType" : 5126,
            "count" : 1541,
            "type" : "VEC2"
        },
        {
            "bufferView" : 7,
            "componentType" : 5123,
            "count" : 2196,
            "type" : "SCALAR"
        }
    ],
    "bufferViews" : [
        {
            "buffer" : 0,
            "byteLength" : 66516,
            "byteOffset" : 0
        },
        {
            "buffer" : 0,
            "byteLength" : 66516,
            "byteOffset" : 66516
        },
        {
            "buffer" : 0,
            "byteLength" : 44344,
            "byteOffset" : 133032
        },
        {
            "buffer" : 0,
            "byteLength" : 16560,
            "byteOffset" : 177376
        },
        {
            "buffer" : 0,
            "byteLength" : 18492,
            "byteOffset" : 193936
        },
        {
            "buffer" : 0,
            "byteLength" : 18492,
            "byteOffset" : 212428
        },
        {
            "buffer" : 0,
            "byteLength" : 12328,
            "byteOffset" : 230920
        },
        {
            "buffer" : 0,
            "byteLength" : 4392,
            "byteOffset" : 243248
        },
        {
            "buffer" : 0,
            "byteLength" : 147567,
            "byteOffset" : 247640
        }
    ],
    "samplers" : [
        {
            "magFilter" : 9729,
            "minFilter" : 9987
        }
    ],
    "buffers" : [
        {
            "byteLength" : 395208,
            "uri" : "data:application/octet-stream;base64,"
        }
    ]
}
