{
    "asset" : {
        "generator" : "Khronos glTF Blender I/O v1.6.16",
        "version" : "2.0"
    },
    "scene" : 0,
    "scenes" : [
        {
            "name" : "Scene",
            "nodes" : [
                0,
                1,
                2,
                3,
                4,
                5,
                6,
                7,
                8
            ]
        }
    ],
    "nodes" : [
        {
            "name" : "Cube"
        },
        {
            "mesh" : 0,
            "name" : "Icosphere",
            "rotation" : [
                -0.43469423055648804,
                -0.2087695300579071,
                -0.08097431063652039,
                0.872295618057251
            ],
            "scale" : [
                1.2739973068237305,
                1.2739973068237305,
                1.2739973068237305
            ],
            "translation" : [
                -0.44128990173339844,
                6.587334156036377,
                -3.9412336349487305
            ]
        },
        {
            "mesh" : 1,
            "name" : "Icosphere.001",
            "scale" : [
                -1.1468534469604492,
                -1.1468534469604492,
                -1.1468534469604492
            ],
            "translation" : [
                -1.145756721496582,
                6.893267631530762,
                -2.093353748321533
            ]
        },
        {
            "mesh" : 2,
            "name" : "Icosphere.002",
            "rotation" : [
                -0.14028756320476532,
                0.2913353741168976,
                -0.15773621201515198,
                0.9330393075942993
            ],
            "scale" : [
                2.2088277339935303,
                2.2088277339935303,
                2.2088277339935303
            ],
            "translation" : [
                -2.196749687194824,
                7.350915908813477,
                2.975666046142578
            ]
        },
        {
            "mesh" : 3,
            "name" : "Icosphere.003",
            "rotation" : [
                -0.592040479183197,
                -0.24394407868385315,
                -0.447963684797287,
                0.6239454746246338
            ],
            "scale" : [
                2.36103892326355,
                2.3610379695892334,
                2.3610386848449707
            ],
            "translation" : [
                -1.4055739641189575,
                8.095359802246094,
                0.07123658061027527
            ]
        },
        {
            "mesh" : 4,
            "name" : "Icosphere.004",
            "rotation" : [
                -0.6262117028236389,
                -0.5139316320419312,
                -0.4044342637062073,
                0.4244597852230072
            ],
            "scale" : [
                1.6095435619354248,
                1.6095432043075562,
                1.6095434427261353
            ],
            "translation" : [
                -1.3114491701126099,
                7.9078288078308105,
                -1.2564681768417358
            ]
        },
        {
            "mesh" : 5,
            "name" : "Icosphere.005",
            "rotation" : [
                -0.3824652433395386,
                -0.606176495552063,
                -0.4275946319103241,
                0.5508477091789246
            ],
            "scale" : [
                1.6095435619354248,
                1.6095432043075562,
                1.6095434427261353
            ],
            "translation" : [
                -2.579906702041626,
                7.648960590362549,
                -0.9129128456115723
            ]
        },
        {
            "mesh" : 6,
            "name" : "Icosphere.006",
            "rotation" : [
                -0.4568510353565216,
                -0.6775560975074768,
                -0.4143592119216919,
                0.4006388783454895
            ],
            "scale" : [
                1.2385553121566772,
                1.2385550737380981,
                1.2385551929473877
            ],
            "translation" : [
                -1.7675212621688843,
                7.249818801879883,
                -2.1652116775512695
            ]
        },
        {
            "mesh" : 7,
            "name" : "Icosphere.007",
            "rotation" : [
                -0.2414100170135498,
                -0.4920944273471832,
                -0.025135952979326248,
                0.8360218405723572
            ],
            "scale" : [
                0.8756392002105713,
                0.8756392598152161,
                0.8756392002105713
            ],
            "translation" : [
                0.01148378849029541,
                6.899874687194824,
                -2.0532162189483643
            ]
        }
    ],
    "materials" : [
        {
            "doubleSided" : true,
            "name" : "Material.003",
            "pbrMetallicRoughness" : {
                "baseColorFactor" : [
                    0.7991032600402832,
                    0.31398871541023254,
                    0.0027317702770233154,
                    1
                ],
                "metallicFactor" : 0,
                "roughnessFactor" : 0.5
            }
        }
    ],
    "meshes" : [
        {
            "name" : "Icosphere",
            "primitives" : [
                {
                    "attributes" : {
                        "POSITION" : 0,
                        "NORMAL" : 1,
                        "TEXCOORD_0" : 2
                    },
                    "indices" : 3,
                    "material" : 0
                }
            ]
        },
        {
            "name" : "Icosphere.001",
            "primitives" : [
                {
                    "attributes" : {
                        "POSITION" : 4,
                        "NORMAL" : 5,
                        "TEXCOORD_0" : 6
                    },
                    "indices" : 3,
                    "material" : 0
                }
            ]
        },
        {
            "name" : "Icosphere.002",
            "primitives" : [
                {
                    "attributes" : {
                        "POSITION" : 7,
                        "NORMAL" : 8,
                        "TEXCOORD_0" : 9
                    },
                    "indices" : 3,
                    "material" : 0
                }
            ]
        },
        {
            "name" : "Icosphere.003",
            "primitives" : [
                {
                    "attributes" : {
                        "POSITION" : 10,
                        "NORMAL" : 11,
                        "TEXCOORD_0" : 12
                    },
                    "indices" : 3,
                    "material" : 0
                }
            ]
        },
        {
            "name" : "Icosphere.004",
            "primitives" : [
                {
                    "attributes" : {
                        "POSITION" : 13,
                        "NORMAL" : 14,
                        "TEXCOORD_0" : 15
                    },
                    "indices" : 3,
                    "material" : 0
                }
            ]
        },
        {
            "name" : "Icosphere.005",
            "primitives" : [
                {
                    "attributes" : {
                        "POSITION" : 16,
                        "NORMAL" : 17,
                        "TEXCOORD_0" : 18
                    },
                    "indices" : 3,
                    "material" : 0
                }
            ]
        },
        {
            "name" : "Icosphere.006",
            "primitives" : [
                {
                    "attributes" : {
                        "POSITION" : 19,
                        "NORMAL" : 20,
                        "TEXCOORD_0" : 21
                    },
                    "indices" : 3,
                    "material" : 0
                }
            ]
        },
        {
            "name" : "Icosphere.007",
            "primitives" : [
                {
                    "attributes" : {
                        "POSITION" : 22,
                        "NORMAL" : 23,
                        "TEXCOORD_0" : 24
                    },
                    "indices" : 3,
                    "material" : 0
                }
            ]
        }
    ],
    "accessors" : [
        {
            "bufferView" : 0,
            "componentType" : 5126,
            "count" : 60,
            "max" : [
                0.8944249749183655,
                1,
                0.8506399989128113
            ],
            "min" : [
                -0.8944249749183655,
                -1,
                -0.8506399989128113
            ],
            "type" : "VEC3"
        },
        {
            "bufferView" : 1,
            "componentType" : 5126,
            "count" : 60,
            "type" : "VEC3"
        },
        {
            "bufferView" : 2,
            "componentType" : 5126,
            "count" : 60,
            "type" : "VEC2"
        },
        {
            "bufferView" : 3,
            "componentType" : 5123,
            "count" : 60,
            "type" : "SCALAR"
        },
        {
            "bufferView" : 4,
            "componentType" : 5126,
            "count" : 60,
            "max" : [
                0.8944249749183655,
                1,
                0.8506399989128113
            ],
            "min" : [
                -0.8944249749183655,
                -1,
                -0.8506399989128113
            ],
            "type" : "VEC3"
        },
        {
            "bufferView" : 5,
            "componentType" : 5126,
            "count" : 60,
            "type" : "VEC3"
        },
        {
            "bufferView" : 6,
            "componentType" : 5126,
            "count" : 60,
            "type" : "VEC2"
        },
        {
            "bufferView" : 7,
            "componentType" : 5126,
            "count" : 60,
            "max" : [
                0.8944249749183655,
                1,
                0.8506399989128113
            ],
            "min" : [
                -0.8944249749183655,
                -1,
                -0.8506399989128113
            ],
            "type" : "VEC3"
        },
        {
            "bufferView" : 8,
            "componentType" : 5126,
            "count" : 60,
            "type" : "VEC3"
        },
        {
            "bufferView" : 9,
            "componentType" : 5126,
            "count" : 60,
            "type" : "VEC2"
        },
        {
            "bufferView" : 10,
            "componentType" : 5126,
            "count" : 60,
            "max" : [
                0.8944249749183655,
                1,
                0.8506399989128113
            ],
            "min" : [
                -0.8944249749183655,
                -1,
                -0.8506399989128113
            ],
            "type" : "VEC3"
        },
        {
            "bufferView" : 11,
            "componentType" : 5126,
            "count" : 60,
            "type" : "VEC3"
        },
        {
            "bufferView" : 12,
            "componentType" : 5126,
            "count" : 60,
            "type" : "VEC2"
        },
        {
            "bufferView" : 13,
            "componentType" : 5126,
            "count" : 60,
            "max" : [
                0.8944249749183655,
                1,
                0.8506399989128113
            ],
            "min" : [
                -0.8944249749183655,
                -1,
                -0.8506399989128113
            ],
            "type" : "VEC3"
        },
        {
            "bufferView" : 14,
            "componentType" : 5126,
            "count" : 60,
            "type" : "VEC3"
        },
        {
            "bufferView" : 15,
            "componentType" : 5126,
            "count" : 60,
            "type" : "VEC2"
        },
        {
            "bufferView" : 16,
            "componentType" : 5126,
            "count" : 60,
            "max" : [
                0.8944249749183655,
                1,
                0.8506399989128113
            ],
            "min" : [
                -0.8944249749183655,
                -1,
                -0.8506399989128113
            ],
            "type" : "VEC3"
        },
        {
            "bufferView" : 17,
            "componentType" : 5126,
            "count" : 60,
            "type" : "VEC3"
        },
        {
            "bufferView" : 18,
            "componentType" : 5126,
            "count" : 60,
            "type" : "VEC2"
        },
        {
            "bufferView" : 19,
            "componentType" : 5126,
            "count" : 60,
            "max" : [
                0.8944249749183655,
                1,
                0.8506399989128113
            ],
            "min" : [
                -0.8944249749183655,
                -1,
                -0.8506399989128113
            ],
            "type" : "VEC3"
        },
        {
            "bufferView" : 20,
            "componentType" : 5126,
            "count" : 60,
            "type" : "VEC3"
        },
        {
            "bufferView" : 21,
            "componentType" : 5126,
            "count" : 60,
            "type" : "VEC2"
        },
        {
            "bufferView" : 22,
            "componentType" : 5126,
            "count" : 60,
            "max" : [
                0.8944249749183655,
                1,
                0.8506399989128113
            ],
            "min" : [
                -0.8944249749183655,
                -1,
                -0.8506399989128113
            ],
            "type" : "VEC3"
        },
        {
            "bufferView" : 23,
            "componentType" : 5126,
            "count" : 60,
            "type" : "VEC3"
        },
        {
            "bufferView" : 24,
            "componentType" : 5126,
            "count" : 60,
            "type" : "VEC2"
        }
    ],
    "bufferViews" : [
        {
            "buffer" : 0,
            "byteLength" : 720,
            "byteOffset" : 0
        },
        {
            "buffer" : 0,
            "byteLength" : 720,
            "byteOffset" : 720
        },
        {
            "buffer" : 0,
            "byteLength" : 480,
            "byteOffset" : 1440
        },
        {
            "buffer" : 0,
            "byteLength" : 120,
            "byteOffset" : 1920
        },
        {
            "buffer" : 0,
            "byteLength" : 720,
            "byteOffset" : 2040
        },
        {
            "buffer" : 0,
            "byteLength" : 720,
            "byteOffset" : 2760
        },
        {
            "buffer" : 0,
            "byteLength" : 480,
            "byteOffset" : 3480
        },
        {
            "buffer" : 0,
            "byteLength" : 720,
            "byteOffset" : 3960
        },
        {
            "buffer" : 0,
            "byteLength" : 720,
            "byteOffset" : 4680
        },
        {
            "buffer" : 0,
            "byteLength" : 480,
            "byteOffset" : 5400
        },
        {
            "buffer" : 0,
            "byteLength" : 720,
            "byteOffset" : 5880
        },
        {
            "buffer" : 0,
            "byteLength" : 720,
            "byteOffset" : 6600
        },
        {
            "buffer" : 0,
            "byteLength" : 480,
            "byteOffset" : 7320
        },
        {
            "buffer" : 0,
            "byteLength" : 720,
            "byteOffset" : 7800
        },
        {
            "buffer" : 0,
            "byteLength" : 720,
            "byteOffset" : 8520
        },
        {
            "buffer" : 0,
            "byteLength" : 480,
            "byteOffset" : 9240
        },
        {
            "buffer" : 0,
            "byteLength" : 720,
            "byteOffset" : 9720
        },
        {
            "buffer" : 0,
            "byteLength" : 720,
            "byteOffset" : 10440
        },
        {
            "buffer" : 0,
            "byteLength" : 480,
            "byteOffset" : 11160
        },
        {
            "buffer" : 0,
            "byteLength" : 720,
            "byteOffset" : 11640
        },
        {
            "buffer" : 0,
            "byteLength" : 720,
            "byteOffset" : 12360
        },
        {
            "buffer" : 0,
            "byteLength" : 480,
            "byteOffset" : 13080
        },
        {
            "buffer" : 0,
            "byteLength" : 720,
            "byteOffset" : 13560
        },
        {
            "buffer" : 0,
            "byteLength" : 720,
            "byteOffset" : 14280
        },
        {
            "buffer" : 0,
            "byteLength" : 480,
            "byteOffset" : 15000
        }
    ],
    "buffers" : [
        {
            "byteLength" : 15480,
            "uri" : "data:application/octet-stream;base64,"
        }
    ]
}
